<?xml version="1.0" standalone="no"?>
<!DOCTYPE svg PUBLIC "-//W3C//DTD SVG 20010904//EN"
 "http://www.w3.org/TR/2001/REC-SVG-20010904/DTD/svg10.dtd">
<svg version="1.0" xmlns="http://www.w3.org/2000/svg"
 width="272.000000pt" height="272.000000pt" viewBox="0 0 272.000000 272.000000"
 preserveAspectRatio="xMidYMid meet">
<metadata>
Created by potrace 1.11, written by Peter Selinger 2001-2013
</metadata>
<g transform="translate(0.000000,272.000000) scale(0.100000,-0.100000)"
fill="#000000" stroke="none">
<path d="M1170 2709 c-19 -4 -38 -5 -43 -2 -4 2 -14 -1 -22 -7 -8 -7 -15 -10
-15 -7 0 3 -20 0 -44 -7 -25 -8 -47 -11 -50 -8 -4 3 -6 0 -6 -7 0 -7 -4 -9
-10 -6 -5 3 -25 -1 -44 -10 -19 -9 -40 -18 -48 -19 -35 -7 -141 -57 -150 -70
-4 -6 -8 -7 -8 -3 0 5 -12 0 -27 -11 -16 -11 -38 -23 -50 -26 -13 -4 -23 -11
-23 -14 0 -4 -16 -16 -35 -26 -19 -11 -35 -23 -35 -28 0 -4 -7 -8 -15 -8 -8 0
-15 -3 -15 -7 0 -5 -13 -17 -29 -28 -16 -10 -27 -23 -25 -27 3 -4 -1 -8 -9 -8
-22 0 -160 -151 -215 -235 -15 -22 -30 -42 -33 -45 -10 -9 -33 -55 -31 -62 1
-5 -2 -8 -7 -8 -8 0 -31 -46 -34 -67 -1 -4 -8 -16 -17 -26 -8 -10 -14 -20 -12
-22 1 -3 -5 -19 -13 -35 -8 -16 -15 -32 -15 -35 1 -3 -8 -30 -19 -60 -11 -30
-23 -67 -26 -82 -15 -71 -18 -89 -19 -105 0 -10 -3 -18 -6 -18 -4 0 -5 -16 -4
-35 2 -19 0 -35 -4 -35 -8 0 -7 -256 2 -315 3 -22 8 -58 12 -80 3 -22 6 -46 7
-52 0 -7 4 -13 9 -13 5 0 8 -6 6 -13 -3 -16 22 -109 33 -121 5 -6 9 -17 9 -26
0 -9 14 -45 31 -81 17 -35 35 -73 40 -84 5 -11 19 -36 32 -56 12 -19 31 -50
42 -67 10 -18 23 -32 27 -32 4 0 8 -6 8 -13 0 -6 18 -32 40 -56 22 -24 40 -45
40 -47 0 -8 96 -100 145 -139 28 -22 52 -42 55 -45 8 -8 109 -73 161 -103 26
-14 49 -23 53 -20 3 3 6 2 6 -4 0 -10 36 -26 53 -24 4 1 7 -4 7 -10 0 -6 6 -9
14 -6 8 3 16 3 18 -2 3 -7 166 -61 208 -68 14 -3 39 -7 55 -10 17 -3 44 -6 61
-7 17 -2 35 -5 40 -8 13 -7 292 -3 329 5 17 4 44 9 60 12 27 4 60 11 90 19 6
1 44 13 85 26 41 13 78 23 83 22 4 -1 7 2 7 6 0 9 70 37 83 34 4 -1 7 2 7 7 0
5 17 16 38 26 62 27 92 46 92 56 0 6 5 7 10 4 6 -3 10 -1 10 4 0 6 6 11 13 11
7 0 23 10 37 23 14 12 41 34 60 48 48 36 152 140 187 186 15 21 38 49 51 63
12 14 22 30 22 37 0 7 8 17 18 22 9 6 13 11 9 11 -5 0 1 12 11 28 25 34 113
212 105 212 -3 0 0 7 7 15 6 8 9 19 5 25 -3 5 -2 10 3 10 8 0 51 152 56 200 1
14 5 30 8 35 8 13 3 400 -6 445 -4 19 -8 47 -11 62 -2 15 -6 32 -10 38 -3 6
-8 23 -11 38 -4 26 -15 55 -35 94 -5 10 -9 27 -9 38 0 11 -4 20 -10 20 -5 0
-9 4 -7 8 2 8 -42 101 -53 112 -3 3 -6 12 -8 20 -2 8 -8 17 -13 18 -5 2 -9 8
-9 14 0 18 -107 162 -174 233 -36 39 -66 74 -66 78 0 5 -4 6 -8 3 -5 -3 -15 3
-24 12 -25 28 -68 62 -78 62 -6 0 -10 5 -10 11 0 5 -4 7 -10 4 -5 -3 -10 -2
-10 4 0 12 -146 101 -154 94 -3 -4 -6 -2 -6 4 0 10 -36 26 -52 24 -5 -1 -8 3
-8 9 0 5 -9 10 -20 10 -11 0 -20 5 -20 10 0 6 -9 10 -19 10 -11 0 -40 9 -65
20 -25 10 -56 21 -69 22 -12 2 -27 6 -32 10 -6 4 -29 9 -50 12 -22 3 -67 10
-100 15 -70 11 -334 11 -385 0z"/>
</g>
</svg>
